<svg xmlns="http://www.w3.org/2000/svg" viewBox="0 0 2000 2000">
<defs>
</defs>
<g id="BG">
<rect class="cls-1" width="2000" height="2000"/>
</g>
<g id="Logo">
<path class="cls-2" d="M743.28477,942.41888a272.59664,272.59664,0,0,1-17.13191,95.88143C694.91063,1121.51067,624.23647,1179.567,542.05643,1179.567q-8.12026,0-16.08926-.74827V1038.06313c.61331.02046,1.22663.03274,1.83994.03274,39.51788,0,71.55331-42.74391,71.55331-95.47255a124.43478,124.43478,0,0,0-3.88023-31.07458c-9.65765-37.47349-36.30821-64.398-67.67308-64.398-.61331,0-1.22663.01226-1.83994.03269v-.23713H400.85111v64.60241H258.56226V705.47523H525.96717v.54379q3.83935-.36183,7.7114-.54379h16.75578c78.71677,3.79845,145.77243,60.88572,175.87388,141.4711a268.69485,268.69485,0,0,1,15.28788,64.60241A282.10588,282.10588,0,0,1,743.28477,942.41888Z"/>
<rect class="cls-3" x="258.32798" y="923.42739" width="142.44142" height="371.09737"/>
<rect class="cls-3" x="258.32798" y="923.42739" width="142.44142" height="371.09737" transform="translate(-779.42739 1438.52477) rotate(-90)"/>
<path d="M812.69654,962.81809c0-60.82116,47.37077-105.853,111.99343-105.853,64.331,0,111.99479,44.73876,111.99479,105.853s-47.66382,105.853-111.99479,105.853C860.06731,1068.67107,812.69654,1023.64062,812.69654,962.81809Zm176.03271,0c0-38.89135-27.48688-65.50044-64.03928-65.50044-36.551,0-64.03792,26.60909-64.03792,65.50044s27.48688,65.50045,64.03792,65.50045C961.24237,1028.31854,988.72925,1001.70945,988.72925,962.81809Z"/>
<path d="M1059.48693,962.81809c0-61.69895,47.37078-105.853,111.117-105.853,35.38156,0,64.91571,12.86565,84.21486,36.25934l-30.41193,28.07162c-13.74344-15.79071-30.99533-23.97843-51.464-23.97843-38.30662,0-65.50045,26.90213-65.50045,65.50044s27.19383,65.50045,65.50045,65.50045c20.46863,0,37.72052-8.18772,51.464-24.27013l30.41193,28.07162c-19.29915,23.684-48.8333,36.551-84.50791,36.551C1106.85771,1068.67107,1059.48693,1024.51705,1059.48693,962.81809Z"/>
<path d="M1361.24973,984.74926l-27.48688,28.65636v51.757h-47.07908V860.47356h47.07908V956.0929l90.647-95.61934h52.6348l-84.79961,91.2331,89.77058,113.456h-55.26545Z"/>
<path d="M1661.55135,1027.14906v38.01357H1503.06358V860.47356h154.68628v38.01357h-107.6072V942.9342h95.03324v36.84409h-95.03324v47.37077Z"/>
<path d="M1741.66625,899.07187H1676.1658V860.47356h178.37167v38.59831H1789.037v166.09076h-47.37077Z"/>
<path d="M972.93086,1105.75612v186.475H929.77534V1215.777H845.06365v76.4541H801.90812v-186.475h43.15553V1179.281h84.71169v-73.52483Z"/>
<path d="M1139.95644,1252.27183h-86.57555l-16.51766,39.95927H992.64229l83.11481-186.475h42.62158l83.38177,186.475H1156.4741Zm-13.58591-32.76587-29.56961-71.39276L1067.2313,1219.506Z"/>
<path d="M1340.01239,1292.2311l-35.96212-51.94706H1264.358v51.94706h-43.15553v-186.475h80.717c49.815,0,80.9815,25.84067,80.9815,67.6638,0,27.9715-14.11738,48.48384-38.35992,58.87227l41.82314,59.93891Zm-40.49075-151.31131H1264.358v65.00026h35.16367c26.37089,0,39.6923-12.25475,39.6923-32.50013C1339.21394,1152.90758,1325.89253,1140.91979,1299.52164,1140.91979Z"/>
<path d="M1586.6846,1292.2311l-.267-111.88474-54.8751,92.17208H1512.0956l-54.6106-89.77427V1292.2311h-40.49075v-186.475h35.69514l69.79587,115.88067,68.728-115.88067h35.43064l.53394,186.475Z"/>
<path d="M1794.196,1252.27183h-86.57555l-16.51766,39.95927h-44.22094l83.1148-186.475h42.62158L1856,1292.2311h-45.28636Zm-13.58591-32.76587-29.56962-71.39276-29.56962,71.39276Z"/>
</g>
</svg>